<?xml version="1.0" encoding="UTF-8" standalone="no"?>
<!-- Created with Inkscape (http://www.inkscape.org/) -->

<svg
   version="1.1"
   id="svg2"
   width="600"
   height="600"
   viewBox="0 0 600 600"
   xmlns:xlink="http://www.w3.org/1999/xlink"
   xmlns="http://www.w3.org/2000/svg"
   xmlns:svg="http://www.w3.org/2000/svg">
  <defs
     id="defs6">
    <linearGradient
       id="linearGradient874">
      <stop
         style="stop-color:#224e97;stop-opacity:1;"
         offset="0"
         id="stop870" />
      <stop
         style="stop-color:#224e97;stop-opacity:1;"
         offset="0.30626312"
         id="stop1822" />
      <stop
         style="stop-color:#43924d;stop-opacity:1;"
         offset="1"
         id="stop872" />
    </linearGradient>
    <filter
       style="color-interpolation-filters:sRGB"
       id="filter7-0-7-6-7-1-4"
       x="-0.079228793"
       y="-0.0784612"
       width="1.1584576"
       height="1.1569224">
      <feGaussianBlur
         stdDeviation="14.891695"
         id="feGaussianBlur7-3-6-6-24-9-0" />
    </filter>
    <filter
       style="color-interpolation-filters:sRGB"
       id="filter22-6"
       x="-0.19293917"
       y="-0.19106991"
       width="1.3858783"
       height="1.3821398">
      <feGaussianBlur
         stdDeviation="20.902701"
         id="feGaussianBlur22-2" />
    </filter>
    <linearGradient
       xlink:href="#linearGradient874"
       id="linearGradient24"
       gradientUnits="userSpaceOnUse"
       gradientTransform="translate(-5167.0753,413.6698)"
       x1="-30.760582"
       y1="279.31595"
       x2="420.3389"
       y2="279.31595" />
  </defs>
  <g
     id="g8"
     transform="translate(1026.2535,5315.2814)">
    <g
       id="g1"
       transform="matrix(0.76916699,0,0,0.76916699,-271.04913,-1226.9424)">
      <g
         id="g2"
         transform="translate(84.910121,31.87803)">
        <rect
           style="opacity:0.489754;fill:#000000;fill-opacity:0.505558;stroke-width:2.26772;stroke-linecap:round;filter:url(#filter7-0-7-6-7-1-4)"
           id="rect291-3-4-6-3-0-9-3-5"
           width="451.09949"
           height="455.51263"
           x="-63.290016"
           y="1473.6693"
           ry="28.471035"
           transform="rotate(90,3070.7436,-2027.8415)" />
        <g
           id="g3"
           transform="translate(16.260786,15.159585)">
          <rect
             style="fill:url(#linearGradient24);fill-opacity:1;stroke-width:2.26772;stroke-linecap:round"
             id="rect291-3-3-7-4-9-8-4"
             width="451.09949"
             height="455.51263"
             x="-5197.8364"
             y="465.22934"
             ry="28.471035"
             transform="rotate(90)" />
          <path
             style="fill:#ffffff;fill-opacity:1;fill-rule:evenodd"
             d="m -865.9388,-4982.1374 c -4.9909,-1.2137 -9.1012,-5.5957 -10.0775,-10.7436 -0.4438,-2.34 -0.4445,-147.7516 -8e-4,-150.1292 0.9817,-5.2601 5.3174,-9.7259 10.4941,-10.8089 1.2154,-0.2543 24.5336,-0.3548 82.32,-0.3548 h 80.6242 v 19.68 19.68 h -66.4145 -66.4145 l -0.7571,0.757 c -0.4163,0.4164 -1.0938,1.3884 -1.5054,2.16 -0.7383,1.3839 -0.7498,1.5589 -0.8501,12.843 l -0.1018,11.44 h 58.7417 58.7417 v 19.68 19.68 h -58.7417 -58.7417 l 0.1018,11.44 c 0.1003,11.2841 0.1118,11.4591 0.8501,12.843 0.4116,0.7716 1.0891,1.7436 1.5054,2.16 l 0.7571,0.757 h 66.4145 66.4145 v 19.68 19.68 l -80.88,-0.027 c -62.3262,-0.021 -81.247,-0.1165 -82.48,-0.4163 z"
             id="path3-5-0-5-7-4-5-4" />
          <path
             style="fill:#ffffff;fill-opacity:1;fill-rule:evenodd"
             d="m -673.6188,-4982.1943 c -3.8139,-1.0204 -6.9537,-3.7025 -8.7646,-7.487 l -0.9954,-2.08 v -26.08 -26.08 h 18.72 18.72 l 0.16,9.44 c 0.1522,8.9784 0.1948,9.505 0.8708,10.7691 0.3908,0.7309 1.2548,1.7799 1.92,2.331 2.4764,2.0518 0.1655,1.96 46.9909,1.8657 l 42.5383,-0.086 1.28,-0.6919 c 1.6531,-0.8936 3.1977,-2.5166 3.8238,-4.0178 0.7419,-1.7787 0.7413,-27.8443 -7e-4,-29.6205 -0.6304,-1.5092 -1.8695,-2.8176 -3.5031,-3.6991 l -1.28,-0.6907 -59.84,-0.16 c -56.9463,-0.1522 -59.9177,-0.1883 -61.4474,-0.7451 -3.6583,-1.3318 -6.7782,-4.3229 -8.2348,-7.8949 l -0.7178,-1.76 v -37.6 -37.6 l 0.9954,-2.08 c 1.2407,-2.5928 3.0619,-4.6543 5.2888,-5.9864 3.612,-2.1608 -2.2569,-2.0136 80.2758,-2.0136 81.7687,0 76.4887,-0.1202 80.0595,1.8233 2.0435,1.1122 4.585,3.8397 5.5578,5.9645 1.2929,2.8241 1.4526,5.5856 1.3544,23.4122 l -0.092,16.64 -18.96,0.082 -18.96,0.082 v -2.0928 c 0,-3.3533 -1.4023,-5.723 -4.32,-7.3003 l -1.28,-0.6919 -42.5384,-0.086 c -46.9633,-0.095 -44.6984,-0.1863 -47.079,1.9039 -2.3618,2.0737 -2.5302,2.7586 -2.6447,10.7559 l -0.1021,7.1341 0.8501,1.4507 c 0.498,0.8497 1.4611,1.8382 2.3248,2.3859 l 1.4746,0.9352 h 59.0786 c 41.3746,0 59.6476,0.1048 60.9774,0.3498 2.7887,0.5139 5.1875,1.7761 7.2002,3.7887 2.1299,2.13 3.38,4.6226 3.81,7.5971 0.4294,2.9701 0.4267,83.6572 0,86.6292 -0.6125,4.2372 -3.3899,8.2589 -6.9623,10.0814 -3.3829,1.7258 1.0893,1.6355 -79.8935,1.6127 -64.8703,-0.018 -75.1283,-0.084 -76.6528,-0.4919 z"
             id="path4-7-2-4-8-08-0-9" />
          <path
             style="fill:#ffffff;fill-opacity:1;fill-rule:evenodd"
             d="m -671.3788,-4790.5568 c -5.3366,-0.7096 -9.8488,-4.3999 -11.3592,-9.2901 -0.6333,-2.0502 -0.6408,-2.9498 -0.6408,-76.9308 0,-74.8176 4e-4,-74.8574 0.6614,-76.8198 1.4283,-4.2395 4.749,-7.4817 8.9167,-8.7059 1.571,-0.4614 9.545,-0.5105 82.96,-0.5105 h 81.2219 v 19.52 19.52 h -66.3728 -66.3728 l -1.2508,1.4211 c -0.688,0.7815 -1.4203,1.9862 -1.6272,2.6771 -0.257,0.8578 -0.3764,4.7698 -0.3764,12.3389 v 11.0829 h 58.72 58.72 v 19.52 19.52 h -58.72 -58.72 v 11.143 c 0,12.3884 0.091,13.0635 2.0572,15.2097 l 1.0692,1.1673 h 66.4393 66.4393 l -0.082,19.6 -0.082,19.6 -80.32,0.032 c -44.176,0.018 -80.752,-0.025 -81.28,-0.095 z"
             id="path2-9-6-2-1-0-6-9" />
          <path
             style="fill:#ffffff;fill-opacity:1;fill-rule:evenodd"
             d="m -876.3921,-4790.5811 c -0.3937,-0.3937 -0.2549,-159.5723 0.1408,-161.4535 0.8948,-4.2542 3.6669,-7.7869 7.5557,-9.629 l 2.1676,-1.0267 32.64,-0.086 c 31.9455,-0.084 32.6853,-0.073 34.7667,0.559 4.0732,1.2363 7.5437,4.719 8.7566,8.7875 l 0.3756,1.2601 0.5264,-1.5449 c 1.2409,-3.6419 3.6105,-6.2634 7.1973,-7.9627 l 2.1374,-1.0126 h 33.76 33.76 l 2.1515,1.0192 c 3.7967,1.7985 6.2515,4.6913 7.4209,8.7448 0.4601,1.595 0.5012,9.4602 0.4282,82.08 l -0.081,80.316 h -18.7201 -18.7199 l -0.16,-64.48 -0.16,-64.48 -0.709,-1.3257 c -0.9268,-1.7329 -2.978,-3.4636 -4.6644,-3.9355 -0.9311,-0.2605 -4.1686,-0.3462 -10.4927,-0.2778 l -9.146,0.099 -1.5655,0.9685 c -0.9694,0.5997 -1.9343,1.5648 -2.534,2.5348 l -0.9684,1.5664 -0.16,64.6652 -0.16,64.6651 h -18.88 -18.88 l -0.16,-64.48 -0.16,-64.48 -0.709,-1.3256 c -0.8967,-1.6767 -2.9207,-3.4221 -4.5257,-3.903 -0.8087,-0.2423 -4.2302,-0.3703 -9.8425,-0.3683 -8.3524,0 -8.6498,0.025 -10.2159,0.7543 -1.7289,0.8051 -3.1315,2.2386 -3.9554,4.0426 -0.4628,1.0132 -0.5161,7.2514 -0.5596,65.44 l -0.048,64.32 -18.6961,0.082 c -10.2828,0.045 -18.7932,-0.015 -18.9119,-0.1333 z"
             id="path1-22-1-5-7-3-6-3" />
        </g>
      </g>
      <g
         id="g25"
         transform="translate(103.37047,21.543076)">
        <path
           id="rect291-3-9-6-5-4-3-4-0-6"
           style="opacity:0.305935;stroke-width:9.007;stroke-linecap:round;filter:url(#filter22-6)"
           transform="matrix(0,0.83910314,-0.83910314,0,-1245.6053,-3141.8508)"
           d="m -2372.309,-565.14941 c 72.0233,0 130.006,57.98265 130.006,130.00595 v 2.54373 c 0,72.0233 -57.9827,130.00595 -130.006,130.00595 -72.0233,0 -130.0059,-57.98265 -130.0059,-130.00595 v -2.54373 c 0,-72.0233 57.9826,-130.00595 130.0059,-130.00595 z" />
        <g
           id="g24"
           transform="matrix(0.79655072,0,0,0.79655072,-201.12803,-1031.9878)">
          <g
             id="rect291-3-9-6-5-4-3-4-05"
             transform="rotate(90)">
            <path
               style="color:#000000;fill:#ffffff;stroke-linecap:round;-inkscape-stroke:none"
               d="m -5178.2602,750.50964 c 72.0233,0 130.006,57.98266 130.006,130.00595 v 2.54374 c 0,72.02329 -57.9827,130.00597 -130.006,130.00597 -31.273,0 -59.8989,-10.9318 -82.2803,-29.19817 -29.1641,-23.80196 -47.7256,-60.05753 -47.7256,-100.8078 v -2.54374 c 0,-72.02329 57.9826,-130.00595 130.0059,-130.00595 z"
               id="path4" />
            <path
               style="color:#000000;fill:#224e97;stroke-linecap:round;-inkscape-stroke:none"
               d="m -5178.2598,746.00586 c -74.4402,0 -134.5097,60.06951 -134.5097,134.50976 v 2.54297 c 0,42.11778 19.2064,79.67033 49.3808,104.29688 23.1568,18.89923 52.8065,30.21293 85.1289,30.21293 74.4403,0 134.5098,-60.06955 134.5098,-134.50981 v -2.54297 c 0,-74.44025 -60.0695,-134.50976 -134.5098,-134.50976 z m 0,9.00781 c 69.6062,0 125.502,55.89578 125.502,125.50195 v 2.54297 c 0,69.60618 -55.8958,125.50391 -125.502,125.50391 -30.2234,0 -57.8276,-10.55008 -79.4336,-28.18359 -28.1536,-22.97732 -46.0683,-57.93763 -46.0683,-97.32032 v -2.54297 c 0,-69.60618 55.8957,-125.50195 125.5019,-125.50195 z"
               id="path5" />
          </g>
          <path
             style="font-size:137.086px;line-height:1.25;font-family:A-Signature;-inkscape-font-specification:A-Signature;white-space:pre;inline-size:220.145;fill:#224e97;stroke-width:3.42713"
             d="m -1724.8068,-2004.8005 c -0.4113,-1.0967 -1.7821,-3.7013 -3.4272,-2.6046 -7.8139,5.0722 -13.8456,12.0635 -20.5629,18.2324 -3.29,3.0159 -6.1688,5.4835 -10.2814,7.6768 -1.7821,0.9596 -3.8384,2.1934 -5.8947,2.6047 -0.4113,0.137 -0.9596,0.137 -1.508,0.137 0,0 -0.137,0 -0.137,0 0,-0.137 0,-0.137 -0.1371,-0.137 0,0 0.1371,-0.1371 0.1371,-0.1371 0,-0.1371 0,-0.1371 0,-0.2742 0,-0.6854 0.137,-1.2338 0.2741,-1.9192 0,-0.6854 0.1371,-1.2338 0.2742,-1.7821 0,-0.2742 0.1371,-0.6854 0.1371,-0.9596 0,0 0.1371,-0.2742 0.1371,-0.4113 0.6854,-2.6046 1.3708,-5.2092 2.0563,-7.8139 0.8225,-2.7417 1.7821,-5.4834 1.9192,-8.3622 0.2741,-1.9192 0.2741,-3.9755 -0.4113,-5.8947 -0.4112,-1.3709 -1.3708,-3.2901 -2.8788,-3.9755 -1.2338,-0.5484 -3.153,0.2742 -4.3867,0.6854 -1.0967,0.4113 -2.1934,0.8225 -3.2901,1.508 -2.3305,1.0966 -4.3868,2.7417 -6.1689,4.3867 -3.9755,3.4272 -7.1285,7.6768 -9.7331,11.9265 -6.3059,10.5556 -9.4589,22.7563 -9.0477,34.8198 0,1.6451 0.4113,5.6206 3.0159,5.6206 2.3305,0 3.0159,-4.1126 2.8788,-5.6206 0,-1.2337 0,-2.4675 0,-3.7013 0.1371,-0.2742 0.1371,-0.5483 0.1371,-0.8225 0,0 0,-0.1371 0,-0.2742 0,-0.1371 0,-0.2741 0,-0.2741 0,-0.4113 0.1371,-0.6855 0.1371,-1.0967 0.1371,-1.2338 0.2742,-2.3305 0.5484,-3.5643 0,-0.5483 0.137,-1.0967 0.2741,-1.645 0,0 0,0 0,-0.1371 0,0 0,0 0,0 0,-0.2742 0.1371,-0.6854 0.2742,-0.9596 0.5483,-2.3305 1.3709,-4.6609 2.1934,-6.8543 0,0 0,0 0,0 0,-0.1371 0,-0.1371 0,-0.1371 0.1371,-0.1371 0.2741,-0.4112 0.4112,-0.6854 0.2742,-0.6854 0.5484,-1.2338 0.8225,-1.7821 0.5484,-1.0967 1.0967,-2.1934 1.6451,-3.153 0.5483,-1.0967 1.2338,-2.1934 1.9192,-3.153 0.1371,-0.2742 0.2742,-0.5483 0.4112,-0.6854 0,-0.1371 0.1371,-0.2742 0.2742,-0.4113 0.2742,-0.5483 0.6854,-1.0967 1.0967,-1.645 1.5079,-1.7821 3.0159,-3.5642 4.6609,-5.2093 1.6451,-1.5079 3.0159,-2.6046 5.0722,-3.8384 0.9596,-0.5483 1.9192,-0.9596 2.8788,-1.3708 0.1371,0 0.2742,-0.1371 0.4113,-0.1371 -0.5484,2.3304 -1.2338,4.6609 -1.9192,6.9914 -0.6855,2.8788 -1.3709,5.7576 -1.7822,8.7735 -0.4112,3.29 -0.6854,6.7172 0.2742,9.8702 0.8225,2.7417 2.7417,5.4834 6.0318,5.4834 2.3305,0 4.798,-1.2338 6.8543,-2.1934 4.1126,-2.0563 7.6768,-4.6609 10.9669,-7.6768 1.3708,-1.0967 2.7417,-2.3305 4.1126,-3.7013 -1.2338,2.7417 -2.3305,5.4834 -3.2901,8.2251 -1.2338,3.8385 -2.4675,7.951 -2.7417,11.9265 -0.4113,4.9351 0,11.2411 4.9351,14.257 0.8225,0.4112 1.7821,-0.1371 2.3304,-0.6855 0.8226,-0.8225 1.2338,-2.1933 1.3709,-3.29 0.2742,-2.1934 0.1371,-5.4835 -2.1934,-6.8543 -0.1371,-0.1371 -0.1371,-0.2742 -0.2742,-0.2742 0,0 -0.137,-0.1371 -0.2741,-0.2742 0,0 0,-0.1371 0,-0.1371 -0.1371,0 -0.1371,0 -0.1371,0 0,-0.137 0,-0.137 0,-0.137 0,0 0,-0.1371 0,-0.1371 0.1371,-0.4113 0.1371,-0.8225 0.1371,-1.2338 0.1371,-0.4113 0.1371,-0.6854 0.2741,-1.0967 0,-0.1371 0,-0.2742 0,-0.5483 0,0 0.1371,-0.1371 0.1371,-0.2742 0.5484,-2.3305 1.2338,-4.5238 2.0563,-6.8543 0.2742,-0.8225 0.6855,-1.7821 0.9596,-2.6046 0.1371,-0.1371 0.5484,-1.0967 0.5484,-1.0967 0.2741,-0.5484 0.5483,-1.0967 0.6854,-1.6451 3.9755,-8.4993 9.1848,-16.4503 14.2569,-24.2642 1.2338,-1.7821 1.2338,-4.798 0.5484,-6.7172 z m 76.768,90.888 c -1.0967,-6.1688 -4.3868,-11.3781 -9.8702,-14.5311 -4.9351,-2.8788 -11.104,-3.5642 -16.8616,-3.7013 -8.6364,-0.2742 -17.2728,0.1371 -25.7722,1.3708 1.7822,-6.3059 3.4272,-12.7489 5.3464,-19.0549 1.645,-5.8947 3.4272,-11.7894 5.4834,-17.6841 0.9596,-2.8788 1.9192,-5.7576 3.0159,-8.4993 0,-0.1371 0.4113,-1.0967 0.5484,-1.3709 0.2742,-0.5483 0.5483,-1.2338 0.8225,-1.9192 2.0563,-4.2497 3.9755,-8.4993 5.7576,-12.8861 1.0967,-2.4675 1.3709,-5.8947 0,-8.3622 -0.4113,-0.8225 -1.0967,-1.7821 -2.1934,-1.7821 -0.9596,0 -1.645,0.9596 -2.0563,1.7821 -2.0562,4.1126 -4.1125,8.4993 -5.8947,12.8861 -2.1933,4.3867 -4.5238,8.7735 -6.9913,13.1602 -2.4676,4.2497 -4.7981,7.8139 -7.4027,11.6523 -2.6046,3.7013 -5.0722,7.4027 -8.0881,10.5556 -2.7417,3.153 -5.8947,5.7577 -9.8702,7.4027 0,0 0,0 0,-0.1371 -0.2741,-0.2742 -0.6854,-0.9596 -0.2741,-0.2742 -0.1371,-0.1371 -0.2742,-0.4112 -0.4113,-0.5483 0,0 0,-0.1371 0,-0.1371 -0.1371,-0.2742 -0.1371,-0.6854 -0.1371,-0.8225 0,-0.1371 -0.1371,-0.1371 -0.1371,-0.1371 0,-0.1371 0,-0.1371 0,-0.2742 0,-0.2741 0,-0.6854 0.1371,-0.9596 0,-0.2741 0,-0.4112 0,-0.5483 0.1371,-0.9596 0.2742,-1.9192 0.4113,-2.7417 0,-0.1371 0.1371,-0.4113 0.1371,-0.5484 0.1371,-0.6854 0.2741,-1.2338 0.4112,-1.7821 0.5484,-2.1934 1.0967,-4.3868 1.6451,-6.5801 0.6854,-2.3305 1.3708,-4.5239 2.1933,-6.7172 0.2742,-1.0967 0.6855,-2.0563 1.0967,-3.0159 0.1371,-0.4113 0.2742,-0.6855 0.2742,-0.9596 0,0 0.1371,-0.1371 0.1371,-0.2742 0.1371,-0.1371 0.1371,-0.4113 0.2742,-0.4113 0.137,-0.4112 0.2741,-0.8225 0.4112,-1.0967 0.8225,-2.0562 1.645,-3.9754 2.4676,-5.8947 0.2741,0.9597 0.6854,1.7822 1.2337,2.4676 1.9192,2.0563 3.5643,-0.4113 4.1126,-2.1934 l 6.8543,-21.9337 c 0.6854,-2.0563 0.6854,-5.2093 -0.4112,-7.1285 -0.8226,-1.3709 -2.4676,-2.7417 -3.7014,-0.9596 -5.8947,8.3622 -10.8298,17.4099 -14.8052,26.8688 -1.9193,4.9351 -3.7014,9.8702 -5.2093,14.9424 -1.3709,4.798 -2.7417,9.8702 -3.2901,14.9424 -0.6854,5.4834 -0.4112,11.5152 2.8788,16.1761 0.5484,0.8226 1.3709,1.7822 2.1934,2.3305 1.2338,0.8225 2.6046,0 3.8384,-0.5483 2.0563,-0.8226 3.9755,-2.0563 5.6205,-3.4272 3.7014,-3.0159 6.7172,-6.443 9.459,-10.2814 1.0967,-1.3709 2.0563,-2.8788 3.1529,-4.3868 -1.7821,6.1689 -3.4271,12.2007 -5.0721,18.3695 -0.4113,1.2338 -0.6855,2.6047 -1.0967,3.9755 -10.4186,2.0563 -20.7,5.2093 -30.1589,10.1444 -4.7981,2.4675 -9.459,5.2093 -13.7086,8.4993 -4.3868,3.4272 -8.7735,7.1285 -12.0636,11.5152 -7.8139,10.1444 -10.9669,25.9093 -2.7417,36.7391 5.7576,7.8139 16.9986,9.1848 25.6351,5.8947 10.1443,-3.8384 16.8615,-13.5715 21.7966,-22.6192 5.8947,-11.104 10.1444,-23.0304 13.7086,-34.9569 0.4113,-1.2338 0.8225,-2.6047 1.2338,-3.9755 6.1689,-0.9596 12.4748,-1.6451 18.7808,-1.9192 5.3463,-0.1371 10.8298,-0.2742 16.1761,0.4112 2.7417,0.2742 5.3464,0.8225 7.8139,2.0563 2.1934,0.9596 3.8384,2.0563 5.2093,3.5643 0.4113,0.4112 0.8225,0.8225 1.0967,1.3708 0.1371,0.1371 0.2742,0.2742 0.4112,0.4113 0,0.1371 0,0.1371 0.1371,0.2741 0.1371,0.4113 0.2742,0.6855 0.5484,1.0967 -0.4113,-0.6854 0.4112,2.0563 0,0.2742 0.2741,1.508 1.3708,5.3464 3.7013,4.1126 2.1934,-1.0967 2.4675,-5.3464 2.0563,-7.2656 z m -63.3337,-2.8788 c -0.9596,2.7417 -1.7822,5.6205 -2.8789,8.3623 -0.4112,1.2337 -0.8225,2.4675 -1.2337,3.7013 -0.1371,0.4112 -0.2742,0.8225 -0.4113,1.0967 -0.1371,0.1371 -0.1371,0.1371 -0.1371,0.1371 0,0 0,0 0,0 -0.2741,0.8225 -0.5483,1.645 -0.8225,2.3304 -2.1934,5.2093 -4.5238,10.4186 -7.4026,15.3537 -0.5484,0.9596 -1.2338,2.0562 -1.7821,3.0158 -0.1371,0.1371 -0.6855,0.9596 -0.6855,0.9596 -0.4112,0.6855 -0.8225,1.2338 -1.2338,1.7822 -1.5079,2.0563 -3.1529,3.9755 -4.935,5.6205 -1.508,1.645 -3.153,2.8788 -5.2093,4.1126 -1.9192,1.0967 -3.9755,2.0563 -6.1689,2.6046 -1.5079,0.4113 -3.9755,0.6854 -5.8947,0.6854 -0.9596,0 -2.0563,0 -3.0159,-0.2741 -1.0967,-0.1371 -1.9192,-0.2742 -2.7417,-0.5484 -1.9192,-0.6854 -3.8384,-1.645 -5.3463,-2.8788 -0.1371,0 -0.1371,0 -0.1371,0 0,-0.1371 0,-0.1371 -0.1371,-0.1371 -0.1371,-0.1371 -0.2742,-0.2741 -0.4113,-0.5483 -0.4112,-0.2742 -0.6854,-0.5484 -0.9596,-0.9596 -0.1371,-0.1371 -0.2742,-0.4113 -0.4112,-0.5484 0,0 -0.2742,-0.4112 -0.4113,-0.5483 0,-0.1371 -0.1371,-0.2742 -0.1371,-0.4113 -0.2742,-0.2741 -0.4112,-0.6854 -0.5483,-1.0967 -0.1371,0 -0.1371,-0.2741 -0.2742,-0.4112 0,-0.2742 -0.1371,-0.5484 -0.1371,-0.5484 0,0 -0.1371,-0.2741 -0.1371,-0.5483 0,0 0,0 0,0 0,-0.2742 -0.1371,-0.6854 -0.2741,-1.0967 0.137,0 0.137,-0.1371 0.137,-0.2742 0,-0.137 -0.137,-0.4112 -0.137,-0.6854 0,0 0.137,-0.1371 0.137,-0.2742 0,-0.4112 0,-0.6854 0.1371,-1.0966 0,-0.2742 0,-0.5484 0.1371,-0.6855 0,-0.1371 0,-0.1371 0,-0.1371 0.1371,-0.5483 0.2742,-1.0967 0.4113,-1.645 0.1371,-0.1371 0.1371,-0.2742 0.1371,-0.4113 0,0 0.2741,-0.6854 0.4112,-0.8225 0.4113,-1.0967 1.0967,-2.1933 1.7821,-3.29 0,0 0,-0.1371 0,-0.1371 0,0 0,0 0,0 0.2742,-0.2742 0.4113,-0.6854 0.6855,-0.9596 0.4112,-0.5484 0.8225,-1.0967 1.3708,-1.7821 1.6451,-1.9192 3.4272,-3.8384 5.3464,-5.6206 3.4271,-3.1529 7.5397,-6.1688 11.7894,-8.7735 8.3622,-5.2092 17.6841,-9.0476 27.4172,-11.6523 1.3708,-0.2741 2.7417,-0.6854 4.1126,-0.9596 z"
             id="text1-8-1-6-9-1-0-02"
             transform="translate(841.03757,-3235.1988)"
             aria-label="my" />
        </g>
      </g>
    </g>
  </g>
</svg>
